<?xml version="1.0" encoding="UTF-8"?>
<svg id="Layer_1" data-name="Layer 1" xmlns="http://www.w3.org/2000/svg" viewBox="0 0 392.41 409.93">
  <defs>
    <style>
      .cls-1 {
        fill: #011038;
        stroke-width: 0px;
      }
    </style>
  </defs>
  <path class="cls-1" d="M297.65,202.42c-28.91,9.36-44.25-8.96-95.44,6.19,32.54,42.58,55.64,36.56,73.47,61.17,8.89,12.26,6.2,29.37-6.01,38.22-12.21,8.85-29.3,6.08-38.19-6.16-17.86-24.63-4.97-44.8-35.33-88.92-30.5,44.13-17.62,64.26-35.52,88.84-8.89,12.23-26.03,14.96-38.19,6.07-12.21-8.87-14.85-25.99-5.94-38.21,17.9-24.58,41.05-18.58,73.61-61.01-51.26-15.29-66.55,3.02-95.41-6.41-14.4-4.7-22.26-20.13-17.59-34.45,4.69-14.34,20.14-22.15,34.54-17.45,28.89,9.45,30.33,33.32,80.82,51.22-1.32-53.63-23.58-62.32-23.58-92.74.02-15.14,12.23-27.4,27.3-27.4,15.09,0,27.3,12.29,27.3,27.42-.02,30.42-22.28,39.19-23.65,92.72,50.61-17.8,52.01-41.66,80.94-51.04,14.4-4.67,29.85,3.18,34.49,17.51,4.66,14.35-3.24,29.75-17.64,34.43Z"/>
</svg>